# xmcd
#
# Track frame offsets: 
#        150
#        10298
#        23236
#        33216
#        43852
#        53795
#        64152
#        71861
#        91070
#        104142
#        123351
#        134767
#        156280
#        170180
#        178750
#        196280
#        208977
#        228819
#        237744
#        249166
#        264837
#
# Disc length: 3695 seconds
#
# Revision: 0
# Processed by: cddbd v1.5.2PL0 Copyright (c) Steve Scherf et al.
# Submitted via: ExactAudioCopy v0.99pb5
#
DISCID=360e6d15
DTITLE=Elvis Presley  - FTD 65 - Easy Come, Easy Go  
DYEAR=1900
DGENRE=
TTITLE0=Easy Come, Easy Go
TTITLE1=The Love Machine
TTITLE2=Yoga Is As Yoga Does
TTITLE3=You Gotta Stop
TTITLE4=Sing You Children
TTITLE5=I'll Take Love
TTITLE6=She's A Machine
TTITLE7=The Love Machine (Takes 1-3)
TTITLE8=Sing You Children (Take 1)
TTITLE9=She's A Machine (Takes 5-7)
TTITLE10=Easy Come, Easy Go (Take 10)
TTITLE11=The Love Machine (Takes 4-5, 11)
TTITLE12=I'll Take Love (Takes 1-2a)
TTITLE13=She's A Machine (Take 10)
TTITLE14=Sing You Children (Takes 18-19)
TTITLE15=Yoga Is As Yoga Does (Takes 5-6)
TTITLE16=The Love Machine (Take 13-14)
TTITLE17=She's A Machine (Take 13, Movie Master)
TTITLE18=I'll Take Love (Take 2b)
TTITLE19=You Gotta Stop (Instrumental)
TTITLE20=Leave My Woman Alone (Instrumental)
EXTD=
EXTT0=
EXTT1=
EXTT2=
EXTT3=
EXTT4=
EXTT5=
EXTT6=
EXTT7=
EXTT8=
EXTT9=
EXTT10=
EXTT11=
EXTT12=
EXTT13=
EXTT14=
EXTT15=
EXTT16=
EXTT17=
EXTT18=
EXTT19=
EXTT20=
PLAYORDER=
